<?xml version="1.0" standalone="no"?><!DOCTYPE svg PUBLIC "-//W3C//DTD SVG 1.1//EN" "http://www.w3.org/Graphics/SVG/1.1/DTD/svg11.dtd"><svg t="1593598347018" class="icon" viewBox="0 0 1024 1024" version="1.1" xmlns="http://www.w3.org/2000/svg" p-id="2091" xmlns:xlink="http://www.w3.org/1999/xlink" width="200" height="200"><defs><style type="text/css"></style></defs><path d="M170.666667 245.76l150.186666 532.48h68.266667l122.88-443.733333 122.88 443.733333h68.266667l150.186666-532.48h-68.266666l-116.053334 443.733333L546.133333 245.76H477.866667l-122.88 443.733333-116.053334-443.733333z" fill="#2c2c2c" p-id="2092"></path><path d="M955.733333 1024H68.266667c-40.96 0-68.266667-27.306667-68.266667-68.266667V68.266667c0-40.96 27.306667-68.266667 68.266667-68.266667h887.466666c40.96 0 68.266667 27.306667 68.266667 68.266667v887.466666c0 40.96-27.306667 68.266667-68.266667 68.266667z m0-955.733333H68.266667v887.466666h887.466666V68.266667z" fill="#2c2c2c" p-id="2093"></path></svg>